<?xml version="1.0" standalone="no"?>
<!DOCTYPE svg PUBLIC "-//W3C//DTD SVG 20010904//EN"
 "http://www.w3.org/TR/2001/REC-SVG-20010904/DTD/svg10.dtd">
<svg version="1.0" xmlns="http://www.w3.org/2000/svg"
 width="100.000000pt" height="110.000000pt" viewBox="0 0 100.000000 110.000000"
 preserveAspectRatio="xMidYMid meet">

<g transform="translate(0.000000,110.000000) scale(0.100000,-0.100000)"
fill="#000000" stroke="none">
<path d="M340 1085 c-11 -13 -11 -23 0 -54 l12 -39 -69 -68 c-154 -151 -265
-390 -280 -603 -14 -199 54 -311 188 -311 84 0 162 34 285 125 19 14 25 12 97
-35 164 -110 300 -120 370 -28 101 132 55 438 -102 694 -48 77 -134 176 -178
206 -21 13 -21 16 -8 54 14 42 8 58 -26 67 -15 4 -25 -3 -39 -25 -18 -30 -21
-31 -90 -31 -69 0 -72 1 -91 31 -20 35 -49 41 -69 17z m237 -167 c44 -42 75
-120 81 -201 l5 -68 -164 3 -164 3 2 45 c4 72 23 136 56 186 53 80 122 92 184
32z m-321 -250 c0 -151 48 -285 143 -406 l41 -52 -42 -31 c-69 -50 -137 -80
-194 -86 -47 -5 -55 -3 -77 21 -90 97 -43 381 102 613 14 24 26 43 26 43 0 0
0 -46 1 -102z m563 -33 c104 -210 127 -429 53 -516 -24 -29 -29 -31 -78 -27
-60 5 -145 44 -197 90 l-37 33 45 58 c93 121 135 244 135 397 l0 95 20 -25
c10 -14 37 -61 59 -105z m-169 -88 c0 -2 -7 -24 -16 -50 l-16 -47 -119 0
c-132 0 -125 -4 -145 75 l-6 25 151 0 c83 0 151 -1 151 -3z m-100 -206 c0 -5
-12 -24 -26 -41 l-27 -31 -28 33 c-15 18 -28 36 -29 41 0 4 25 7 55 7 30 0 55
-4 55 -9z"/>
</g>
</svg>
